#!OML:ASF E:\motion texture\Top Level 1\Subject 1\Session 1\male.ASF
:FULLY-SPECIFIED
:DEGREES
680
root -37.8058 18.0991 2.02813 450.771 -83.5182 -446.138
lowerback 0.736595 2.59796 8.15108
upperback -0.963778 3.46379 5.1629
thorax -1.245 1.59894 0.724456
lowerneck -20.5471 -1.60342 -4.12053
upperneck 21.0162 -0.957934 -0.239085
head 10.1273 -0.848714 0.449434
rclavicle 3.42904e-015 -7.4743e-014
rhumerus -2.35771 2.41503 -91.7059
rradius 56.4996
rwrist -28.7036
rhand -16.5453 -41.5332
rfingers 7.12502
rthumb 9.67408 -431.291
lclavicle 3.42904e-015 -7.4743e-014
lhumerus -31.0234 18.7233 81.5624
lradius 22.0199
lwrist -35.1258
lhand -7.1295 23.2528
lfingers 7.12502
lthumb 18.7463 52.3695
rfemur -8.0804 1.9918 29.2586
rtibia 15.4758
rfoot -7.31426 -14.1057
rtoes 15.1826
lfemur -25.3276 -0.194569 -7.78418
ltibia 43.3396
lfoot -5.65419 8.78936
ltoes -13.7763
681
root -37.9301 18.0961 2.0213 451.016 -83.3789 -446.334
lowerback 0.655054 2.6717 8.30171
upperback -1.06056 3.56091 5.12988
thorax -1.2843 1.6421 0.609111
lowerneck -20.582 -1.67202 -4.11518
upperneck 21.1862 -1.07028 -0.177832
head 10.1974 -0.895868 0.453088
rclavicle 3.77691e-015 -1.43125e-014
rhumerus -1.39299 3.95657 -91.4889
rradius 57.7881
rwrist -27.2196
rhand -16.91 -40.3453
rfingers 7.12502
rthumb 9.3222 -430.119
lclavicle 3.77691e-015 -1.43125e-014
lhumerus -31.4326 18.9475 81.3933
lradius 21.836
lwrist -35.4769
lhand -7.00882 22.9115
lfingers 7.12502
lthumb 18.8623 52.0169
rfemur -7.57931 2.03238 29.4764
rtibia 15.3046
rfoot -7.60408 -14.1178
rtoes 14.8862
lfemur -25.6372 -0.292701 -7.61908
ltibia 41.8549
lfoot -5.82439 8.79254
ltoes -13.8419
682
root -38.0546 18.092 2.01535 451.128 -83.2403 -446.392
lowerback 0.568703 2.74021 8.44827
upperback -1.15694 3.65029 5.09385
thorax -1.32041 1.68139 0.493414
lowerneck -20.6105 -1.74298 -4.12021
upperneck 21.3448 -1.18735 -0.100402
head 10.2626 -0.943662 0.463506
rclavicle 1.3418e-014 6.36111e-015
rhumerus -0.460846 5.35882 -91.1997
rradius 59.0413
rwrist -25.671
rhand -17.2601 -39.2368
rfingers 7.12502
rthumb 8.98436 -429.025
lclavicle 1.3418e-014 6.36111e-015
lhumerus -31.8434 19.1657 81.2314
lradius 21.6858
lwrist -35.7775
lhand -6.91164 22.6025
lfingers 7.12502
lthumb 18.9558 51.6989
rfemur -7.09628 2.06743 29.6887
rtibia 15.1544
rfoot -7.89734 -14.1422
rtoes 14.5634
lfemur -25.9232 -0.411502 -7.45684
ltibia 40.3264
lfoot -5.95443 8.77752
ltoes -13.9239
683
root -38.1793 18.0868 2.0103 451.122 -83.1028 -446.325
lowerback 0.475236 2.80492 8.58916
upperback -1.2515 3.73336 5.05544
thorax -1.35071 1.71769 0.379028
lowerneck -20.6365 -1.81898 -4.13133
upperneck 21.4958 -1.31216 -0.0144323
head 10.3252 -0.994146 0.476805
rclavicle -2.77305e-014 -9.06458e-014
rhumerus 0.438352 6.62697 -90.8464
rradius 60.2585
rwrist -24.085
rhand -17.6008 -38.207
rfingers 7.12502
rthumb 8.6556 -428.01
lclavicle -2.77305e-014 -9.06458e-014
lhumerus -32.25 19.3806 81.0781
lradius 21.5621
lwrist -36.0333
lhand -6.83971 22.3263
lfingers 7.12502
lthumb 19.025 51.4159
rfemur -6.63094 2.09792 29.8956
rtibia 15.0272
rfoot -8.19435 -14.1785
rtoes 14.2097
lfemur -26.1877 -0.549245 -7.29789
ltibia 38.7683
lfoot -6.04516 8.74991
ltoes -14.0197
684
root -38.3043 18.0805 2.00612 451.017 -82.9677 -446.157
lowerback 0.379029 2.86566 8.72394
upperback -1.34515 3.81059 5.01351
thorax -1.37858 1.75115 0.264764
lowerneck -20.6589 -1.89946 -4.14791
upperneck 21.6395 -1.44418 0.0798543
head 10.3851 -1.04707 0.492892
rclavicle -1.41137e-014 6.04305e-014
rhumerus 1.29827 7.76696 -90.441
rradius 61.441
rwrist -22.4761
rhand -17.9208 -37.2577
rfingers 7.12502
rthumb 8.34681 -427.073
lclavicle -1.41137e-014 6.04305e-014
lhumerus -32.6536 19.5991 80.9278
lradius 21.4596
lwrist -36.2526
lhand -6.78964 22.0826
lfingers 7.12502
lthumb 19.0731 51.1674
rfemur -6.18152 2.12502 30.0957
rtibia 14.9238
rfoot -8.49441 -14.2266
rtoes 13.8243
lfemur -26.429 -0.70394 -7.14417
ltibia 37.1917
lfoot -6.09841 8.71414
ltoes -14.1249
685
root -38.4297 18.0732 2.00285 450.832 -82.8346 -445.905
lowerback 0.281909 2.9222 8.85406
upperback -1.43752 3.88187 4.96794
thorax -1.40466 1.78168 0.14959
lowerneck -20.68 -1.98426 -4.17163
upperneck 21.7776 -1.5829 0.183889
head 10.4432 -1.10219 0.512619
rclavicle 4.77083e-015 -2.06736e-014
rhumerus 2.11673 8.78681 -89.9939
rradius 62.5887
rwrist -20.8616
rhand -18.2136 -36.3649
rfingers 7.12502
rthumb 8.06416 -426.191
lclavicle 4.77083e-015 -2.06736e-014
lhumerus -33.0513 19.8268 80.7777
lradius 21.3727
lwrist -36.4388
lhand -6.76005 21.8757
lfingers 7.12502
lthumb 19.1016 50.9577
rfemur -5.7499 2.14652 30.2894
rtibia 14.849
rfoot -8.79801 -14.2831
rtoes 13.4014
lfemur -26.6474 -0.873177 -6.99524
ltibia 35.6077
lfoot -6.1185 8.67288
ltoes -14.2438
686
root -38.5554 18.0649 2.00048 450.589 -82.7039 -445.595
lowerback 0.179921 2.97607 8.9764
upperback -1.52618 3.94845 4.92012
thorax -1.42442 1.81019 0.0368913
lowerneck -20.6976 -2.07245 -4.19745
upperneck 21.9071 -1.72705 0.291203
head 10.4982 -1.15926 0.53306
rclavicle -3.80673e-014 -1.03368e-013
rhumerus 2.89568 9.69713 -89.5084
rradius 63.7016
rwrist -19.2673
rhand -18.4842 -35.5729
rfingers 7.12502
rthumb 7.80301 -425.409
lclavicle -3.80673e-014 -1.03368e-013
lhumerus -33.4402 20.0665 80.6284
lradius 21.2965
lwrist -36.5999
lhand -6.75117 21.6932
lfingers 7.12502
lthumb 19.1101 50.7744
rfemur -5.33343 2.16587 30.4766
rtibia 14.8007
rfoot -9.10314 -14.3495
rtoes 12.9418
lfemur -26.8431 -1.05534 -6.85185
ltibia 34.029
lfoot -6.10956 8.62731
ltoes -14.3667
687
root -38.6816 18.0557 1.99904 450.31 -82.5764 -445.248
lowerback 0.0766591 3.02752 9.09168
upperback -1.61173 4.01123 4.86912
thorax -1.4404 1.83703 -0.0748997
lowerneck -20.7135 -2.16476 -4.23203
upperneck 22.0312 -1.87732 0.409018
head 10.5515 -1.21833 0.557778
rclavicle -1.55052e-014 0
rhumerus 3.62459 10.5 -88.9967
rradius 64.7803
rwrist -17.6994
rhand -18.7285 -34.8727
rfingers 7.12502
rthumb 7.56722 -424.717
lclavicle -1.55052e-014 0
lhumerus -33.8193 20.3232 80.4759
lradius 21.2259
lwrist -36.744
lhand -6.75925 21.5388
lfingers 7.12502
lthumb 19.1023 50.6207
rfemur -4.93239 2.18353 30.6567
rtibia 14.782
rfoot -9.40891 -14.4244
rtoes 12.4398
lfemur -27.0149 -1.24785 -6.71475
ltibia 32.4651
lfoot -6.07206 8.57382
ltoes -14.4884
688
root -38.8084 18.0456 1.99857 450.011 -82.4519 -444.881
lowerback -0.0291149 3.07642 9.19958
upperback -1.69445 4.06992 4.81543
thorax -1.45231 1.8621 -0.185065
lowerneck -20.7252 -2.25978 -4.27154
upperneck 22.1503 -2.03185 0.532301
head 10.6028 -1.27889 0.584638
rclavicle -1.71949e-014 -9.54166e-014
rhumerus 4.29956 11.2111 -88.4646
rradius 65.8277
rwrist -16.1848
rhand -18.9748 -34.2813
rfingers 7.12502
rthumb 7.32944 -424.134
lclavicle -1.71949e-014 -9.54166e-014
lhumerus -34.1913 20.5987 80.3174
lradius 21.1583
lwrist -36.8734
lhand -6.78352 21.4099
lfingers 7.12502
lthumb 19.079 50.4941
rfemur -4.54746 2.19755 30.8293
rtibia 14.7972
rfoot -9.71774 -14.5037
rtoes 11.894
lfemur -27.1649 -1.44593 -6.58454
ltibia 30.9283
lfoot -5.99988 8.50965
ltoes -14.6
689
root -38.9358 18.0348 1.99914 449.705 -82.3333 -444.506
lowerback -0.136078 3.12333 9.29826
upperback -1.77422 4.12546 4.75807
thorax -1.46079 1.8859 -0.293691
lowerneck -20.7337 -2.35737 -4.31588
upperneck 22.265 -2.19039 0.660895
head 10.6526 -1.34084 0.613604
rclavicle 2.42766e-014 1.00983e-013
rhumerus 4.91742 11.8341 -87.9185
rradius 66.8384
rwrist -14.7225
rhand -19.1902 -33.7763
rfingers 7.12502
rthumb 7.12153 -423.636
lclavicle 2.42766e-014 1.00983e-013
lhumerus -34.5531 20.896 80.1512
lradius 21.088
lwrist -36.9958
lhand -6.81979 21.3051
lfingers 7.12502
lthumb 19.0441 50.3927
rfemur -4.17913 2.20827 30.9911
rtibia 14.8463
rfoot -10.0251 -14.5856
rtoes 11.3039
lfemur -27.2928 -1.64997 -6.46473
ltibia 29.4261
lfoot -5.88801 8.4458
ltoes -14.7007
